<?xml version="1.0" encoding="UTF-8" standalone="no"?>
<!-- Created with Inkscape (http://www.inkscape.org/) -->

<svg
   width="209mm"
   height="209mm"
   viewBox="0 0 209 209"
   version="1.1"
   id="svg2072"
   inkscape:version="1.1.2 (0a00cf5339, 2022-02-04)"
   sodipodi:docname="writezebra.svg"
   inkscape:export-filename="/home/jack/Desktop/temp/WriteZebra/icons/icon.png"
   inkscape:export-xdpi="62.223923"
   inkscape:export-ydpi="62.223923"
   xmlns:inkscape="http://www.inkscape.org/namespaces/inkscape"
   xmlns:sodipodi="http://sodipodi.sourceforge.net/DTD/sodipodi-0.dtd"
   xmlns="http://www.w3.org/2000/svg"
   xmlns:svg="http://www.w3.org/2000/svg">
  <sodipodi:namedview
     id="namedview2074"
     pagecolor="#ffffff"
     bordercolor="#666666"
     borderopacity="1.0"
     inkscape:pageshadow="2"
     inkscape:pageopacity="0.0"
     inkscape:pagecheckerboard="0"
     inkscape:document-units="mm"
     showgrid="false"
     inkscape:zoom="0.79370951"
     inkscape:cx="446.00701"
     inkscape:cy="474.35491"
     inkscape:window-width="1920"
     inkscape:window-height="1013"
     inkscape:window-x="0"
     inkscape:window-y="44"
     inkscape:window-maximized="1"
     inkscape:current-layer="layer1" />
  <defs
     id="defs2069" />
  <g
     inkscape:groupmode="layer"
     id="layer2"
     inkscape:label="Layer 2">
    <circle
       style="fill:#808080;stroke-width:0.359653"
       id="path21494"
       cx="104.7467"
       cy="103.52024"
       r="100" />
  </g>
  <g
     inkscape:label="Layer 1"
     inkscape:groupmode="layer"
     id="layer1">
    <path
       d="m 97.620693,183.54003 c -0.123161,-3.53069 -0.455527,-18.61773 -0.548468,-23.96014 -0.03106,-2.44926 18.009825,-2.46039 17.978765,-4.76786 -0.0621,-6.09976 -17.891341,10.1224 -17.891341,5.04431 0,-3.41289 -0.247103,-19.22725 -0.247103,-21.38475 1.626876,-14.73999 6.850844,-19.5656 6.850844,-19.5656 0,0 5.07625,-0.63148 -2.31284,3.17268 -2.133393,1.10534 -2.911128,1.65293 -2.911128,1.65293 -6.801737,2.08833 -15.305283,2.78026 -25.229207,-0.10846 0,0 9.392904,-0.0603 7.939761,0.87983 -4.947023,3.31169 -29.15047,9.97989 -37.809645,15.77594 -11.194204,7.44972 -26.41597,-8.98077 -22.862188,-14.50145 1.234745,-1.93573 3.598859,-17.17856 16.926355,-33.056887 2.070603,-2.449269 4.236747,-4.956414 6.493035,-7.490589 3.709574,-4.234678 7.697699,-8.612188 11.904411,-12.924615 2.226226,-2.330975 4.542653,-4.691557 6.954665,-6.988868 6.370116,-6.237048 13.111694,-12.264992 20.036391,-17.67932 2.103297,-1.662582 4.236656,-3.262864 6.400127,-4.805986 8.967866,-6.405014 18.181633,-11.638713 27.239643,-14.799651 2.50766,-0.898793 5.03987,-1.61935 7.51473,-2.13712 3.80236,-0.879722 -2.17012,9.314324 1.53938,9.368943 4.60829,0.06785 18.7428,-9.420888 22.8867,-7.403399 3.21784,1.532134 -7.63693,22.535243 -4.67034,25.030318 7.91892,6.651075 3.4523,12.748907 9.54377,23.956227 2.59505,4.649718 18.46356,1.67821 20.71988,6.730223 1.70183,3.816857 5.18308,7.066188 6.69641,10.970471 2.2891,5.897973 13.90818,11.480643 15.82575,17.285503 -14.36309,32.01741 -20.46969,46.82757 -20.46969,46.82757"
       style="fill:#e9e9e9;fill-opacity:1;fill-rule:nonzero;stroke:none;stroke-width:0.265354"
       id="path674"
       sodipodi:nodetypes="cccsccccccccccccccccsccccccc" />
    <path
       d="m 25.628052,111.25693 c -7.209482,10.33677 -7.371763,22.87439 -8.20849,24.33503 -3.234945,5.66484 11.022097,17.84016 22.378418,11.61899 3.230006,-2.44833 6.953031,-5.26769 10.534087,-7.97992 5.018034,-3.79919 -15.151155,-23.55824 -24.704015,-27.9741"
       style="fill:#333333;fill-opacity:1;fill-rule:nonzero;stroke:none;stroke-width:0.25509"
       id="path676"
       sodipodi:nodetypes="ccccc" />
    <path
       d="m 36.326534,141.42548 v 0 c 1.476443,-1.05044 3.066324,-2.178 4.695493,-3.33504 0.800704,-0.56716 1.61303,-1.14119 2.425285,-1.71516 -2.464586,1.74693 -4.917681,3.48703 -7.120778,5.0502 v 0"
       style="fill:#46782b;fill-opacity:1;fill-rule:nonzero;stroke:none;stroke-width:0.229136"
       id="path690" />
    <path
       d="m 30.992226,143.0204 c -0.268302,0 -0.539227,-0.01 -0.812257,-0.027 0.26175,0.0161 0.522839,0.0251 0.782212,0.0251 1.943913,0 3.77678,-0.48098 5.361988,-1.60173 1.478808,-1.04815 3.068689,-2.17345 4.697858,-3.32596 -1.629169,1.15706 -3.21905,2.28462 -4.695493,3.33504 v 0 c -1.580622,1.11622 -3.40423,1.59493 -5.334308,1.59493"
       style="fill:#bfbebe;fill-opacity:1;fill-rule:nonzero;stroke:none;stroke-width:0.229136"
       id="path692" />
    <path
       d="m 34.027933,149.05568 c -0.278834,0 -0.560502,-0.0112 -0.841741,-0.0291 -4.328158,-0.18511 -9.123246,-1.47154 -13.202109,-5.71369 0.239303,0.002 6.475844,0.15467 6.71727,0.15467 5.000588,0 4.255972,-1.31752 9.094695,-3.434 4.749076,-2.10863 4.787432,-10.13482 8.483139,-13.68057 2.928995,3.50732 11.395002,8.79054 6.202329,12.7556 -0.01412,0.0155 -0.03525,0.0311 -0.04935,0.0466 -0.981162,0.74468 -1.974806,1.49722 -2.965994,2.24976 -0.874071,0.66104 -1.748205,1.32211 -2.609857,1.97536 -1.753154,1.32736 -3.464015,2.62337 -5.055365,3.83054 -1.70586,1.2908 -3.678198,1.84474 -5.770047,1.84474"
       style="fill:#666666;fill-opacity:1;fill-rule:nonzero;stroke:none;stroke-width:0.25509"
       id="path694"
       sodipodi:nodetypes="cccscccccccc" />
    <path
       d="m 130.23719,38.5179 v -0.0022 0.0022 m 0.0329,-0.03408 v 0 0 m 0.0263,-0.02958 c 0.002,-0.0022 0.002,-0.0044 0.005,-0.0071 -0.002,0.0022 -0.002,0.0044 -0.005,0.0071 m 0.0329,-0.03601 c 1.52276,-1.647106 3.47363,-3.29194 5.60731,-4.818804 -2.13368,1.526864 -4.08455,3.171698 -5.60731,4.818804"
       style="fill:#4a5057;fill-opacity:1;fill-rule:nonzero;stroke:none;stroke-width:0.229136"
       id="path698" />
    <path
       d="m 31.079493,125.9891 c -0.276719,3.18516 1.138093,5.92611 1.138093,5.92611 0,0 1.860233,-2.42741 2.139143,-5.61257 0.117181,-1.3509 -0.393191,-3.99778 -1.299948,-4.08403 -0.904007,-0.0889 -1.87274,2.56851 -1.977288,3.77049"
       style="fill:#999999;fill-opacity:1;fill-rule:nonzero;stroke:none;stroke-width:0.25509"
       id="path726" />
    <path
       d="m 75.451655,75.039124 c 0,2.688433 -2.043677,4.869595 -4.562629,4.869595 -2.518954,0 -4.566082,-2.181162 -4.566082,-4.869595 0,-2.692035 2.047128,-4.869593 4.566082,-4.869593 2.518952,0 4.562629,2.177558 4.562629,4.869593"
       style="fill:#000000;fill-opacity:1;fill-rule:nonzero;stroke:none;stroke-width:0.350717"
       id="path728" />
    <path
       d="m 142.31736,53.666248 c 0.002,-0.0022 0.007,-0.0022 0.007,-0.0044 -0.002,0.0022 -0.007,0.0022 -0.007,0.0044 m 0.046,-0.02252 c 0.005,0 0.007,-0.0022 0.0131,-0.0044 -0.005,0.0022 -0.007,0.0044 -0.0131,0.0044 m 0.0524,-0.02509 c 0,0 0,0 0.002,0 h -0.002 m 0.95579,-0.487795 c 0,0 0,0 0.002,0 -0.002,0 -0.002,0 -0.002,0 m 0.0459,-0.02509 c 0.002,0 0.002,0 0.005,-0.0022 0,0.0022 -0.002,0.0022 -0.005,0.0022 m 0.0971,-0.05209 v 0 0 m 0.0393,-0.02252 c 0.002,-0.0022 0.007,-0.0044 0.007,-0.0071 -0.002,0.0022 -0.007,0.0044 -0.007,0.0071 m 0.0394,-0.02509 c 0.005,-0.0022 0.007,-0.0044 0.0131,-0.0071 -0.005,0.0022 -0.007,0.0044 -0.0131,0.0071 m 0.0459,-0.02509 c 0.005,-0.0022 0.007,-0.0044 0.0131,-0.0071 -0.005,0.0022 -0.007,0.0044 -0.0131,0.0071 m 0.0459,-0.02701 c 0.007,-0.0044 0.0197,-0.01161 0.0263,-0.01608 -0.007,0.0044 -0.0197,0.01161 -0.0263,0.01608 m 0.0459,-0.02509 c 0.007,-0.0044 0.0198,-0.01161 0.0263,-0.01608 -0.007,0.0044 -0.0196,0.01162 -0.0263,0.01608 m 0.0394,-0.02252 c 0.007,-0.0044 0.0198,-0.01161 0.0328,-0.01608 -0.007,0.0044 -0.0195,0.01161 -0.0328,0.01608 m 0.0394,-0.02058 c 1.84447,-1.06631 3.43894,-2.382176 4.80893,-3.850046 -1.3677,1.46787 -2.96217,2.783736 -4.80893,3.850046 m 4.82053,-3.861392 c 0.002,-0.0044 0.007,-0.0091 0.0131,-0.0135 -0.005,0.0044 -0.007,0.0091 -0.0131,0.0135"
       style="fill:#171c1e;fill-opacity:1;fill-rule:nonzero;stroke:none;stroke-width:0.229136"
       id="path730" />
    <path
       d="m 81.249976,124.50297 c -5.762405,1.92617 -14.480495,2.41834 -22.888009,0.004 0,0 -6.870432,-3.52322 -9.383684,-5.9621 -4.241942,-4.08374 -13.359899,-11.68627 -17.68056,-18.900847 1.754203,-2.182529 3.58935,-4.417226 5.500868,-6.676875 5.605031,3.929419 10.608387,11.606832 14.669793,15.304872 5.079701,4.64866 10.501917,9.29503 16.868293,12.14682 4.241941,1.90121 8.696814,2.51602 12.913299,4.08372"
       style="fill:#4d4d4d;fill-opacity:1;fill-rule:nonzero;stroke:none;stroke-width:0.229136"
       id="path736"
       sodipodi:nodetypes="cccccccc" />
    <path
       d="m 101.43365,121.29312 c -0.52284,0 -10.583138,-1.87397 -11.106094,-1.89911 0.07875,-6.06204 6.259971,-3.44395 0,0 -9.823812,-3.23749 -19.67308,-10.17076 -25.828891,-16.56404 -5.188476,-5.342889 -8.199229,-11.504742 -11.420642,-18.131719 -0.944171,-1.898944 -2.228613,-3.77291 -3.300052,-5.699074 1.88606,-2.080423 3.848535,-4.188093 5.891967,-6.241296 4.741806,4.775695 7.937752,13.86652 10.950881,18.000159 9.036942,12.45533 40.128371,30.40784 34.812621,30.5349"
       style="fill:#4d4d4d;fill-opacity:1;fill-rule:nonzero;stroke:none;stroke-width:0.229136"
       id="path738"
       sodipodi:nodetypes="ccccccccc" />
    <path
       d="m 113.20795,112.0164 c -4.26967,-2.0305 -8.06961,-5.11146 -11.47384,-8.65522 C 97.175148,98.662631 93.273332,93.165493 89.633073,88.312667 84.31274,81.225141 79.624141,71.773585 76.796204,63.068447 c 1.781884,-1.490559 3.589281,-2.926673 5.422134,-4.312869 6.498304,4.262956 8.722273,14.147841 12.8624,20.157719 3.510692,5.059286 7.518902,10.093609 11.865002,14.535789 l 0.31489,0.333513 c 6.84479,8.761121 5.50092,13.508031 5.94753,18.233811"
       style="fill:#4d4d4d;fill-opacity:1;fill-rule:nonzero;stroke:none;stroke-width:0.229136"
       id="path740"
       sodipodi:nodetypes="ccccccccc" />
    <path
       d="m 124.32127,96.715774 c -9.98952,-4.710706 -21.71178,-23.410729 -18.56674,-40.845964 2.12209,-0.823555 6.62308,-8.201839 8.71978,-8.689619 0.23615,14.844337 2.10823,36.67185 9.84696,49.535583"
       style="fill:#4d4d4d;fill-opacity:1;fill-rule:nonzero;stroke:none;stroke-width:0.229136"
       id="path742"
       sodipodi:nodetypes="cccc" />
    <path
       d="m 157.10982,83.157547 c -7.07223,9.038639 -14.77395,17.564553 -22.13312,25.244213 -9.58779,10.01419 -23.07731,26.11542 -38.064154,30.06983 0,-3.00382 9.560834,-15.12567 13.751854,-19.25931 6.99581,-6.83117 13.85747,-13.89374 20.1452,-21.339729 2.56645,-3.031021 5.00328,-6.214048 7.38692,-9.451531 -0.99509,-0.02515 -2.01798,-0.30857 -3.06397,-1.025465 -8.33116,-5.703612 -11.97378,-14.177334 -12.10105,-24.064487 -0.0524,-5.263471 -0.34242,-15.792677 2.27724,-22.210928 -2.28647,21.457702 18.75435,39.160655 18.75435,39.160655 2.30728,-3.285139 4.61218,-6.599757 6.91717,-9.887153 2.19851,4.05876 4.21648,8.346669 6.12805,12.763905"
       style="fill:#4d4d4d;fill-opacity:1;fill-rule:nonzero;stroke:none;stroke-width:0.229136"
       id="path744"
       sodipodi:nodetypes="cccccccccccc" />
    <path
       d="m 166.86098,114.93297 c -3.56153,4.16085 -7.20409,8.21962 -11.02717,11.89045 -7.8313,7.52311 -16.04203,14.0544 -24.27899,21.69886 -8.87956,7.93604 -21.43133,17.89964 -34.161794,17.28256 -0.02623,-2.1553 25.173964,-25.62765 37.511024,-36.61742 9.90018,-8.78226 17.28716,-20.31425 26.6134,-29.661436 1.93932,5.161366 3.71891,10.322746 5.34349,15.406986"
       style="fill:#4d4d4d;fill-opacity:1;fill-rule:nonzero;stroke:none;stroke-width:0.229136"
       id="path746"
       sodipodi:nodetypes="ccccccc" />
    <path
       d="m 176.11936,158.66028 c -14.64633,8.37672 -24.64223,11.84376 -37.58097,16.93028 -12.55711,3.20249 -12.41977,3.93154 -40.917697,7.94947 -0.104286,-3.10591 33.713517,-15.407 48.251387,-24.34353 10.79343,-6.65196 19.77956,-14.8693 28.05745,-23.88299 1.56907,6.36832 1.37751,19.34016 2.18983,23.34677"
       style="fill:#4d4d4d;fill-opacity:1;fill-rule:nonzero;stroke:none;stroke-width:0.229136"
       id="path748"
       sodipodi:nodetypes="cccccc" />
    <path
       d="M 64.261543,63.968367 C 51.271094,56.764214 43.941811,51.788428 43.941811,51.788428 c 0,0 4.553455,-8.41058 13.141788,-15.474666 L 70.191046,45.1503 c 0,0 -6.818479,-15.575189 -6.49409,-12.541329 2.743531,-3.31194 13.682224,-9.174805 17.45899,-10.599568 0.888684,-0.333514 8.146826,14.354418 8.146826,14.354418 0,0 -1.776475,-17.03901 -1.311299,-17.188743 0.934925,-0.303998 3.913194,-2.386142 12.890547,-4.319404 l 4.55511,17.454286 c 0,0 1.77257,-18.317465 2.45626,-18.313011 12.40024,0.08078 11.85697,0.360103 22.00133,4.184069 0.78451,0.213253 -4.05736,13.621619 -4.05736,13.621619 0,0 7.57032,-12.571198 8.14891,-12.373821 11.46229,3.890884 18.43881,9.145148 25.1269,18.142955 0.37719,0.512749 -10.75855,13.941809 -10.75855,13.941809 0,0 14.03644,-10.023563 14.21695,-9.760403 5.38981,7.920155 9.30317,17.14257 12.11261,26.861833 0.19877,0.687429 -8.59516,6.099251 -8.59516,6.099251 0,0 9.36116,-3.333662 9.45373,-2.984266 0.27749,1.064034 5.98222,12.181986 21.0463,40.102715 l -20.46969,46.82757 C 151.70272,120.30729 145.2684,94.626361 106.04437,59.666436 c 0,0 -28.03177,4.944029 -41.782768,4.301977"
       style="fill:#333333;fill-opacity:1;fill-rule:nonzero;stroke:none;stroke-width:0.229136"
       id="path668"
       sodipodi:nodetypes="ccccccccccsccccccccccccc" />
  </g>
</svg>
